<svg xmlns="http://www.w3.org/2000/svg" viewBox="0 0 1024 1024" width="1024" height="1024"><defs><linearGradient id="g" x1="0.12" y1="0.05" x2="0.9" y2="0.98"><stop offset="0" stop-color="#2E84FF"></stop><stop offset="1" stop-color="#1450CE"></stop></linearGradient></defs><rect x="0" y="0" width="1024" height="1024" rx="229" ry="229" fill="#FFFFFF"></rect><g transform="translate(128.50,128.50) scale(0.767)"><path d="M670.00,500.00L671.06,502.96L672.07,505.95L673.04,508.98L673.96,512.04L674.83,515.14L675.66,518.28L676.44,521.44L677.16,524.65L677.84,527.88L678.46,531.15L679.03,534.44L679.54,537.77L680.00,541.13L680.41,544.51L680.76,547.93L681.05,551.37L681.29,554.84L681.46,558.33L681.58,561.85L681.63,565.39L681.62,568.96L681.56,572.54L681.43,576.15L681.23,579.78L680.97,583.43L680.65,587.10L680.26,590.78L679.80,594.48L679.28,598.19L678.69,601.92L678.03,605.66L677.30,609.42L676.50,613.18L675.63,616.95L674.69,620.74L673.68,624.53L672.59,628.32L671.44,632.12L670.21,635.92L668.90,639.73L667.53,643.54L666.07,647.34L664.55,651.15L662.94,654.95L661.26,658.75L659.51,662.54L657.67,666.33L655.76,670.10L653.77,673.87L651.71,677.63L649.56,681.37L647.34,685.10L645.04,688.82L642.66,692.51L640.20,696.19L637.66,699.85L635.04,703.49L632.35,707.10L629.57,710.69L626.71,714.26L623.78,717.80L620.76,721.31L617.66,724.78L614.49,728.23L611.23,731.64L607.90,735.02L604.48,738.36L600.99,741.66L597.41,744.92L593.76,748.14L590.03,751.31L586.22,754.44L582.33,757.52L578.37,760.56L574.33,763.54L570.21,766.48L566.01,769.36L561.74,772.18L557.39,774.95L552.97,777.66L548.47,780.31L543.90,782.90L539.25,785.42L534.53,787.88L529.74,790.27L524.88,792.60L519.95,794.85L514.94,797.03L509.87,799.14L504.73,801.18L499.52,803.14L494.25,805.01L488.91,806.81L483.51,808.53L478.04,810.16L472.51,811.71L466.92,813.18L461.27,814.55L455.56,815.84L449.79,817.03L443.96,818.13L438.08,819.14L432.15,820.05L426.16,820.86L420.12,821.57L414.03,822.19L407.89,822.70L401.71,823.10L395.48,823.41L389.21,823.60L382.89,823.69L376.53,823.67L370.14,823.54L363.70,823.29L357.23,822.94L350.73,822.47L344.19,821.88L337.62,821.17L331.03,820.35L324.41,819.41L317.76,818.34L311.09,817.15L304.40,815.84L297.69,814.41L290.96,812.85L284.22,811.16L277.47,809.35L270.70,807.40L263.93,805.33L257.15,803.13L250.37,800.79L243.58,798.32L236.80,795.72L230.02,792.99L223.24,790.12L216.48,787.11L209.72,783.97L202.97,780.69L196.24,777.27L189.53,773.71L182.84,770.02L176.17,766.19L169.53,762.21L162.91,758.10L156.32,753.84L149.77,749.45L143.25,744.91L136.77,740.23L130.33,735.41L123.94,730.45L117.59,725.35L111.29,720.10L105.04,714.71L98.85,709.18L92.72,703.51L86.64,697.69L80.63,691.74L74.68,685.64L68.81,679.40L63.01,673.02A470.00,470.00 0 0 1 79.02,291.02L77.11,301.82L75.47,312.58L74.07,323.31L72.92,334.00L72.02,344.65L71.37,355.25L70.95,365.79L70.78,376.27L70.84,386.69L71.13,397.04L71.65,407.31L72.40,417.50L73.37,427.61L74.56,437.63L75.97,447.56L77.59,457.39L79.42,467.12L81.45,476.75L83.69,486.26L86.13,495.67L88.76,504.95L91.58,514.12L94.58,523.16L97.77,532.08L101.14,540.87L104.68,549.52L108.39,558.04L112.27,566.42L116.31,574.65L120.51,582.74L124.86,590.69L129.36,598.48L134.00,606.12L138.79,613.61L143.71,620.94L148.76,628.12L153.94,635.13L159.24,641.98L164.66,648.67L170.20,655.19L175.84,661.55L181.59,667.73L187.44,673.75L193.39,679.60L199.43,685.28L205.55,690.78L211.76,696.11L218.04,701.27L224.40,706.25L230.83,711.05L237.33,715.68L243.88,720.14L250.49,724.42L257.16,728.52L263.87,732.45L270.63,736.20L277.42,739.78L284.25,743.18L291.11,746.40L298.00,749.45L304.91,752.32L311.84,755.03L318.79,757.56L325.74,759.91L332.70,762.10L339.67,764.11L346.63,765.96L353.59,767.64L360.54,769.15L367.48,770.50L374.41,771.68L381.31,772.70L388.20,773.56L395.05,774.26L401.88,774.80L408.67,775.19L415.43,775.42L422.15,775.49L428.82,775.42L435.45,775.20L442.03,774.83L448.56,774.31L455.04,773.66L461.46,772.86L467.82,771.93L474.11,770.85L480.34,769.65L486.50,768.31L492.59,766.85L498.61,765.26L504.55,763.54L510.42,761.70L516.21,759.74L521.91,757.67L527.53,755.48L533.06,753.18L538.51,750.78L543.86,748.26L549.13,745.65L554.30,742.93L559.38,740.11L564.36,737.20L569.24,734.20L574.02,731.11L578.71,727.93L583.29,724.67L587.76,721.33L592.14,717.91L596.40,714.41L600.57,710.84L604.62,707.20L608.57,703.50L612.40,699.73L616.13,695.90L619.75,692.01L623.25,688.06L626.65,684.07L629.93,680.02L633.10,675.93L636.16,671.79L639.11,667.62L641.94,663.40L644.66,659.15L647.27,654.86L649.76,650.55L652.14,646.21L654.41,641.84L656.57,637.45L658.61,633.04L660.54,628.62L662.36,624.18L664.07,619.73L665.67,615.27L667.16,610.81L668.53,606.34L669.80,601.87L670.96,597.40L672.02,592.93L672.96,588.47L673.80,584.02L674.54,579.58L675.17,575.15L675.69,570.73L676.12,566.34L676.44,561.96L676.67,557.61L676.79,553.28L676.82,548.97L676.75,544.69L676.58,540.44L676.33,536.23L675.97,532.04L675.53,527.90L675.00,523.79L674.38,519.71L673.67,515.68L672.88,511.69L672.00,507.75L671.04,503.85L670.00,500.00Z" fill="url(#g)"></path><path d="M585.00,647.22L582.97,649.62L580.88,651.99L578.74,654.35L576.55,656.68L574.30,658.98L572.00,661.26L569.65,663.52L567.24,665.75L564.77,667.95L562.26,670.12L559.69,672.26L557.06,674.37L554.38,676.45L551.66,678.50L548.87,680.51L546.04,682.48L543.15,684.42L540.21,686.31L537.23,688.17L534.19,689.99L531.09,691.77L527.95,693.50L524.76,695.20L521.52,696.84L518.23,698.44L514.90,699.99L511.51,701.50L508.08,702.95L504.60,704.36L501.08,705.71L497.51,707.01L493.89,708.25L490.23,709.44L486.53,710.58L482.78,711.65L479.00,712.67L475.17,713.63L471.30,714.53L467.39,715.37L463.44,716.14L459.46,716.85L455.43,717.50L451.37,718.07L447.28,718.59L443.15,719.03L438.99,719.41L434.79,719.71L430.57,719.95L426.31,720.11L422.02,720.20L417.71,720.21L413.37,720.15L409.00,720.02L404.61,719.80L400.19,719.51L395.75,719.14L391.30,718.70L386.82,718.17L382.32,717.56L377.80,716.87L373.27,716.09L368.72,715.23L364.16,714.29L359.59,713.26L355.01,712.15L350.42,710.95L345.82,709.66L341.21,708.29L336.60,706.82L331.99,705.27L327.37,703.62L322.76,701.89L318.15,700.07L313.53,698.15L308.93,696.14L304.33,694.04L299.74,691.85L295.15,689.56L290.58,687.18L286.02,684.70L281.48,682.13L276.95,679.46L272.44,676.70L267.95,673.85L263.49,670.89L259.04,667.84L254.62,664.70L250.23,661.46L245.87,658.12L241.54,654.69L237.24,651.16L232.98,647.53L228.75,643.80L224.56,639.98L220.41,636.06L216.30,632.05L212.24,627.94L208.22,623.73L204.26,619.43L200.34,615.03L196.47,610.53L192.66,605.95L188.91,601.26L185.21,596.48L181.57,591.61L177.99,586.64L174.48,581.58L171.04,576.43L167.66,571.19L164.35,565.85L161.12,560.42L157.96,554.91L154.87,549.30L151.87,543.61L148.94,537.83L146.10,531.96L143.34,526.00L140.67,519.96L138.08,513.84L135.59,507.63L133.19,501.34L130.88,494.97L128.67,488.53L126.56,482.00L124.55,475.39L122.64,468.71L120.83,461.95L119.13,455.12L117.54,448.22L116.06,441.25L114.69,434.21L113.44,427.10L112.30,419.92L111.28,412.68L110.37,405.38L109.59,398.02L108.94,390.59L108.40,383.11L108.00,375.57L107.72,367.98L107.58,360.34L107.56,352.65L107.68,344.91L107.93,337.12L108.32,329.29L108.85,321.41L109.52,313.50L110.34,305.55L111.29,297.56L112.39,289.55L113.64,281.50L115.03,273.42L116.57,265.31L118.27,257.18L120.11,249.04L122.11,240.87L124.27,232.68L126.57,224.49L129.04,216.28L131.66,208.06A470.00,470.00 0 0 1 470.49,30.93L460.19,34.68L450.04,38.63L440.05,42.79L430.22,47.14L420.55,51.69L411.04,56.42L401.70,61.33L392.54,66.42L383.55,71.68L374.73,77.11L366.10,82.69L357.64,88.44L349.38,94.33L341.29,100.38L333.40,106.56L325.70,112.88L318.18,119.33L310.87,125.90L303.74,132.60L296.82,139.41L290.09,146.33L283.56,153.35L277.23,160.48L271.10,167.70L265.18,175.01L259.45,182.40L253.93,189.88L248.62,197.42L243.50,205.04L238.60,212.72L233.89,220.46L229.39,228.26L225.10,236.10L221.00,243.99L217.11,251.92L213.43,259.88L209.94,267.87L206.66,275.89L203.58,283.93L200.70,291.98L198.02,300.05L195.53,308.12L193.25,316.19L191.16,324.27L189.26,332.33L187.56,340.39L186.04,348.43L184.72,356.45L183.59,364.45L182.64,372.42L181.88,380.36L181.29,388.27L180.89,396.13L180.67,403.95L180.63,411.73L180.76,419.46L181.06,427.13L181.53,434.74L182.17,442.30L182.97,449.79L183.94,457.21L185.06,464.56L186.34,471.84L187.78,479.04L189.37,486.17L191.10,493.21L192.99,500.16L195.01,507.03L197.18,513.80L199.48,520.49L201.92,527.07L204.49,533.56L207.19,539.95L210.01,546.24L212.95,552.42L216.02,558.50L219.20,564.47L222.49,570.32L225.89,576.07L229.40,581.70L233.01,587.21L236.72,592.61L240.52,597.89L244.42,603.05L248.41,608.09L252.49,613.01L256.65,617.80L260.88,622.47L265.20,627.01L269.59,631.42L274.05,635.71L278.57,639.87L283.16,643.91L287.81,647.81L292.51,651.58L297.27,655.23L302.08,658.74L306.93,662.12L311.83,665.37L316.77,668.49L321.74,671.48L326.75,674.34L331.80,677.06L336.86,679.66L341.96,682.13L347.07,684.46L352.21,686.67L357.36,688.75L362.52,690.69L367.69,692.51L372.87,694.20L378.05,695.77L383.23,697.21L388.41,698.52L393.59,699.71L398.76,700.77L403.92,701.72L409.06,702.54L414.19,703.24L419.30,703.82L424.39,704.28L429.46,704.62L434.50,704.85L439.52,704.97L444.50,704.97L449.45,704.86L454.37,704.65L459.25,704.32L464.09,703.88L468.88,703.34L473.64,702.70L478.35,701.96L483.01,701.11L487.62,700.16L492.18,699.12L496.68,697.99L501.13,696.76L505.53,695.43L509.86,694.02L514.14,692.53L518.35,690.94L522.50,689.27L526.59,687.52L530.61,685.69L534.56,683.78L538.44,681.80L542.26,679.74L546.00,677.61L549.67,675.41L553.27,673.15L556.79,670.82L560.24,668.42L563.61,665.96L566.90,663.45L570.12,660.87L573.25,658.24L576.31,655.56L579.29,652.83L582.18,650.05L585.00,647.22Z" fill="url(#g)"></path><path d="M415.00,647.22L411.91,646.66L408.81,646.04L405.71,645.37L402.59,644.63L399.47,643.84L396.34,642.99L393.21,642.08L390.08,641.10L386.94,640.07L383.80,638.98L380.66,637.82L377.52,636.60L374.38,635.32L371.25,633.98L368.11,632.58L364.99,631.11L361.87,629.58L358.75,627.98L355.65,626.32L352.55,624.60L349.47,622.81L346.40,620.96L343.34,619.04L340.29,617.06L337.26,615.01L334.25,612.90L331.25,610.72L328.28,608.47L325.32,606.16L322.39,603.79L319.48,601.34L316.59,598.84L313.73,596.26L310.90,593.62L308.09,590.92L305.32,588.15L302.57,585.31L299.86,582.41L297.18,579.44L294.54,576.41L291.93,573.31L289.36,570.15L286.83,566.93L284.34,563.64L281.89,560.28L279.48,556.87L277.12,553.39L274.81,549.84L272.54,546.24L270.32,542.57L268.15,538.84L266.03,535.05L263.96,531.20L261.95,527.29L259.99,523.32L258.09,519.29L256.25,515.21L254.47,511.06L252.75,506.86L251.09,502.61L249.49,498.29L247.96,493.93L246.50,489.51L245.11,485.04L243.78,480.51L242.52,475.93L241.34,471.31L240.23,466.63L239.19,461.91L238.23,457.13L237.34,452.31L236.54,447.45L235.81,442.54L235.16,437.59L234.60,432.60L234.12,427.56L233.72,422.49L233.41,417.38L233.19,412.23L233.06,407.04L233.01,401.82L233.06,396.57L233.19,391.28L233.42,385.96L233.75,380.62L234.16,375.25L234.68,369.85L235.29,364.42L236.00,358.98L236.81,353.51L237.72,348.02L238.73,342.51L239.84,336.99L241.05,331.45L242.37,325.90L243.79,320.34L245.32,314.76L246.96,309.18L248.70,303.59L250.55,298.00L252.51,292.40L254.58,286.81L256.76,281.21L259.05,275.62L261.45,270.04L263.96,264.46L266.59,258.89L269.33,253.33L272.18,247.78L275.15,242.25L278.23,236.73L281.43,231.24L284.74,225.76L288.17,220.31L291.71,214.89L295.37,209.49L299.15,204.13L303.04,198.79L307.06,193.49L311.18,188.23L315.43,183.00L319.79,177.82L324.27,172.68L328.87,167.59L333.58,162.54L338.42,157.55L343.37,152.61L348.43,147.72L353.61,142.89L358.91,138.12L364.32,133.42L369.85,128.78L375.50,124.20L381.26,119.70L387.13,115.26L393.12,110.91L399.22,106.63L405.43,102.42L411.76,98.30L418.19,94.27L424.74,90.32L431.39,86.46L438.15,82.69L445.03,79.02L452.00,75.44L459.09,71.97L466.27,68.59L473.57,65.32L480.96,62.15L488.45,59.09L496.05,56.15L503.74,53.32L511.53,50.60L519.42,48.00L527.40,45.53L535.47,43.17L543.64,40.95L551.89,38.85L560.23,36.88L568.66,35.04A470.00,470.00 0 0 1 891.47,239.91L883.08,232.86L874.58,226.05L865.98,219.48L857.29,213.14L848.52,207.04L839.67,201.17L830.75,195.54L821.76,190.15L812.71,184.99L803.60,180.07L794.45,175.38L785.25,170.94L776.01,166.72L766.73,162.74L757.43,159.00L748.11,155.49L738.76,152.21L729.41,149.16L720.05,146.33L710.69,143.74L701.33,141.38L691.98,139.23L682.65,137.32L673.33,135.62L664.04,134.14L654.77,132.88L645.54,131.84L636.35,131.01L627.20,130.39L618.09,129.98L609.03,129.77L600.03,129.77L591.09,129.97L582.21,130.37L573.40,130.97L564.67,131.76L556.00,132.74L547.42,133.91L538.92,135.26L530.50,136.79L522.17,138.50L513.94,140.38L505.80,142.44L497.77,144.67L489.83,147.06L482.00,149.61L474.28,152.32L466.68,155.19L459.18,158.20L451.81,161.37L444.55,164.68L437.41,168.13L430.40,171.71L423.51,175.43L416.76,179.28L410.13,183.26L403.64,187.35L397.28,191.57L391.06,195.90L384.97,200.34L379.02,204.89L373.22,209.54L367.56,214.29L362.04,219.13L356.66,224.07L351.44,229.09L346.35,234.20L341.42,239.39L336.63,244.65L332.00,249.99L327.51,255.39L323.18,260.86L318.99,266.39L314.96,271.98L311.08,277.62L307.35,283.31L303.77,289.05L300.34,294.83L297.07,300.65L293.95,306.50L290.97,312.39L288.15,318.30L285.49,324.23L282.97,330.19L280.60,336.16L278.38,342.15L276.31,348.15L274.38,354.15L272.61,360.16L270.98,366.17L269.49,372.17L268.15,378.17L266.95,384.16L265.90,390.14L264.98,396.10L264.20,402.04L263.57,407.96L263.07,413.86L262.70,419.72L262.47,425.56L262.37,431.37L262.40,437.13L262.55,442.86L262.84,448.55L263.25,454.20L263.79,459.79L264.44,465.34L265.22,470.84L266.11,476.28L267.12,481.67L268.25,487.00L269.48,492.27L270.83,497.48L272.28,502.62L273.84,507.70L275.50,512.71L277.27,517.65L279.13,522.51L281.09,527.31L283.14,532.02L285.29,536.66L287.52,541.22L289.84,545.71L292.25,550.11L294.74,554.42L297.31,558.66L299.96,562.81L302.68,566.87L305.47,570.84L308.34,574.72L311.27,578.52L314.27,582.22L317.34,585.84L320.46,589.36L323.64,592.79L326.88,596.12L330.17,599.36L333.51,602.50L336.90,605.55L340.34,608.51L343.82,611.36L347.34,614.12L350.90,616.79L354.49,619.35L358.12,621.82L361.78,624.19L365.47,626.47L369.18,628.64L372.92,630.72L376.68,632.70L380.46,634.59L384.26,636.38L388.08,638.07L391.90,639.66L395.74,641.16L399.58,642.56L403.43,643.87L407.29,645.08L411.14,646.20L415.00,647.22Z" fill="url(#g)"></path><path d="M330.00,500.00L328.94,497.04L327.93,494.05L326.96,491.02L326.04,487.96L325.17,484.86L324.34,481.72L323.56,478.56L322.84,475.35L322.16,472.12L321.54,468.85L320.97,465.56L320.46,462.23L320.00,458.87L319.59,455.49L319.24,452.07L318.95,448.63L318.71,445.16L318.54,441.67L318.42,438.15L318.37,434.61L318.38,431.04L318.44,427.46L318.57,423.85L318.77,420.22L319.03,416.57L319.35,412.90L319.74,409.22L320.20,405.52L320.72,401.81L321.31,398.08L321.97,394.34L322.70,390.58L323.50,386.82L324.37,383.05L325.31,379.26L326.32,375.47L327.41,371.68L328.56,367.88L329.79,364.08L331.10,360.27L332.47,356.46L333.93,352.66L335.45,348.85L337.06,345.05L338.74,341.25L340.49,337.46L342.33,333.67L344.24,329.90L346.23,326.13L348.29,322.37L350.44,318.63L352.66,314.90L354.96,311.18L357.34,307.49L359.80,303.81L362.34,300.15L364.96,296.51L367.65,292.90L370.43,289.31L373.29,285.74L376.22,282.20L379.24,278.69L382.34,275.22L385.51,271.77L388.77,268.36L392.10,264.98L395.52,261.64L399.01,258.34L402.59,255.08L406.24,251.86L409.97,248.69L413.78,245.56L417.67,242.48L421.63,239.44L425.67,236.46L429.79,233.52L433.99,230.64L438.26,227.82L442.61,225.05L447.03,222.34L451.53,219.69L456.10,217.10L460.75,214.58L465.47,212.12L470.26,209.73L475.12,207.40L480.05,205.15L485.06,202.97L490.13,200.86L495.27,198.82L500.48,196.86L505.75,194.99L511.09,193.19L516.49,191.47L521.96,189.84L527.49,188.29L533.08,186.82L538.73,185.45L544.44,184.16L550.21,182.97L556.04,181.87L561.92,180.86L567.85,179.95L573.84,179.14L579.88,178.43L585.97,177.81L592.11,177.30L598.29,176.90L604.52,176.59L610.79,176.40L617.11,176.31L623.47,176.33L629.86,176.46L636.30,176.71L642.77,177.06L649.27,177.53L655.81,178.12L662.38,178.83L668.97,179.65L675.59,180.59L682.24,181.66L688.91,182.85L695.60,184.16L702.31,185.59L709.04,187.15L715.78,188.84L722.53,190.65L729.30,192.60L736.07,194.67L742.85,196.87L749.63,199.21L756.42,201.68L763.20,204.28L769.98,207.01L776.76,209.88L783.52,212.89L790.28,216.03L797.03,219.31L803.76,222.73L810.47,226.29L817.16,229.98L823.83,233.81L830.47,237.79L837.09,241.90L843.68,246.16L850.23,250.55L856.75,255.09L863.23,259.77L869.67,264.59L876.06,269.55L882.41,274.65L888.71,279.90L894.96,285.29L901.15,290.82L907.28,296.49L913.36,302.31L919.37,308.26L925.32,314.36L931.19,320.60L936.99,326.98A470.00,470.00 0 0 1 920.98,708.98L922.89,698.18L924.53,687.42L925.93,676.69L927.08,666.00L927.98,655.35L928.63,644.75L929.05,634.21L929.22,623.73L929.16,613.31L928.87,602.96L928.35,592.69L927.60,582.50L926.63,572.39L925.44,562.37L924.03,552.44L922.41,542.61L920.58,532.88L918.55,523.25L916.31,513.74L913.87,504.33L911.24,495.05L908.42,485.88L905.42,476.84L902.23,467.92L898.86,459.13L895.32,450.48L891.61,441.96L887.73,433.58L883.69,425.35L879.49,417.26L875.14,409.31L870.64,401.52L866.00,393.88L861.21,386.39L856.29,379.06L851.24,371.88L846.06,364.87L840.76,358.02L835.34,351.33L829.80,344.81L824.16,338.45L818.41,332.27L812.56,326.25L806.61,320.40L800.57,314.72L794.45,309.22L788.24,303.89L781.96,298.73L775.60,293.75L769.17,288.95L762.67,284.32L756.12,279.86L749.51,275.58L742.84,271.48L736.13,267.55L729.37,263.80L722.58,260.22L715.75,256.82L708.89,253.60L702.00,250.55L695.09,247.68L688.16,244.97L681.21,242.44L674.26,240.09L667.30,237.90L660.33,235.89L653.37,234.04L646.41,232.36L639.46,230.85L632.52,229.50L625.59,228.32L618.69,227.30L611.80,226.44L604.95,225.74L598.12,225.20L591.33,224.81L584.57,224.58L577.85,224.51L571.18,224.58L564.55,224.80L557.97,225.17L551.44,225.69L544.96,226.34L538.54,227.14L532.18,228.07L525.89,229.15L519.66,230.35L513.50,231.69L507.41,233.15L501.39,234.74L495.45,236.46L489.58,238.30L483.79,240.26L478.09,242.33L472.47,244.52L466.94,246.82L461.49,249.22L456.14,251.74L450.87,254.35L445.70,257.07L440.62,259.89L435.64,262.80L430.76,265.80L425.98,268.89L421.29,272.07L416.71,275.33L412.24,278.67L407.86,282.09L403.60,285.59L399.43,289.16L395.38,292.80L391.43,296.50L387.60,300.27L383.87,304.10L380.25,307.99L376.75,311.94L373.35,315.93L370.07,319.98L366.90,324.07L363.84,328.21L360.89,332.38L358.06,336.60L355.34,340.85L352.73,345.14L350.24,349.45L347.86,353.79L345.59,358.16L343.43,362.55L341.39,366.96L339.46,371.38L337.64,375.82L335.93,380.27L334.33,384.73L332.84,389.19L331.47,393.66L330.20,398.13L329.04,402.60L327.98,407.07L327.04,411.53L326.20,415.98L325.46,420.42L324.83,424.85L324.31,429.27L323.88,433.66L323.56,438.04L323.33,442.39L323.21,446.72L323.18,451.03L323.25,455.31L323.42,459.56L323.67,463.77L324.03,467.96L324.47,472.10L325.00,476.21L325.62,480.29L326.33,484.32L327.12,488.31L328.00,492.25L328.96,496.15L330.00,500.00Z" fill="url(#g)"></path><path d="M415.00,352.78L417.03,350.38L419.12,348.01L421.26,345.65L423.45,343.32L425.70,341.02L428.00,338.74L430.35,336.48L432.76,334.25L435.23,332.05L437.74,329.88L440.31,327.74L442.94,325.63L445.62,323.55L448.34,321.50L451.13,319.49L453.96,317.52L456.85,315.58L459.79,313.69L462.77,311.83L465.81,310.01L468.91,308.23L472.05,306.50L475.24,304.80L478.48,303.16L481.77,301.56L485.10,300.01L488.49,298.50L491.92,297.05L495.40,295.64L498.92,294.29L502.49,292.99L506.11,291.75L509.77,290.56L513.47,289.42L517.22,288.35L521.00,287.33L524.83,286.37L528.70,285.47L532.61,284.63L536.56,283.86L540.54,283.15L544.57,282.50L548.63,281.93L552.72,281.41L556.85,280.97L561.01,280.59L565.21,280.29L569.43,280.05L573.69,279.89L577.98,279.80L582.29,279.79L586.63,279.85L591.00,279.98L595.39,280.20L599.81,280.49L604.25,280.86L608.70,281.30L613.18,281.83L617.68,282.44L622.20,283.13L626.73,283.91L631.28,284.77L635.84,285.71L640.41,286.74L644.99,287.85L649.58,289.05L654.18,290.34L658.79,291.71L663.40,293.18L668.01,294.73L672.63,296.38L677.24,298.11L681.85,299.93L686.47,301.85L691.07,303.86L695.67,305.96L700.26,308.15L704.85,310.44L709.42,312.82L713.98,315.30L718.52,317.87L723.05,320.54L727.56,323.30L732.05,326.15L736.51,329.11L740.96,332.16L745.38,335.30L749.77,338.54L754.13,341.88L758.46,345.31L762.76,348.84L767.02,352.47L771.25,356.20L775.44,360.02L779.59,363.94L783.70,367.95L787.76,372.06L791.78,376.27L795.74,380.57L799.66,384.97L803.53,389.47L807.34,394.05L811.09,398.74L814.79,403.52L818.43,408.39L822.01,413.36L825.52,418.42L828.96,423.57L832.34,428.81L835.65,434.15L838.88,439.58L842.04,445.09L845.13,450.70L848.13,456.39L851.06,462.17L853.90,468.04L856.66,474.00L859.33,480.04L861.92,486.16L864.41,492.37L866.81,498.66L869.12,505.03L871.33,511.47L873.44,518.00L875.45,524.61L877.36,531.29L879.17,538.05L880.87,544.88L882.46,551.78L883.94,558.75L885.31,565.79L886.56,572.90L887.70,580.08L888.72,587.32L889.63,594.62L890.41,601.98L891.06,609.41L891.60,616.89L892.00,624.43L892.28,632.02L892.42,639.66L892.44,647.35L892.32,655.09L892.07,662.88L891.68,670.71L891.15,678.59L890.48,686.50L889.66,694.45L888.71,702.44L887.61,710.45L886.36,718.50L884.97,726.58L883.43,734.69L881.73,742.82L879.89,750.96L877.89,759.13L875.73,767.32L873.43,775.51L870.96,783.72L868.34,791.94A470.00,470.00 0 0 1 529.51,969.07L539.81,965.32L549.96,961.37L559.95,957.21L569.78,952.86L579.45,948.31L588.96,943.58L598.30,938.67L607.46,933.58L616.45,928.32L625.27,922.89L633.90,917.31L642.36,911.56L650.62,905.67L658.71,899.62L666.60,893.44L674.30,887.12L681.82,880.67L689.13,874.10L696.26,867.40L703.18,860.59L709.91,853.67L716.44,846.65L722.77,839.52L728.90,832.30L734.82,824.99L740.55,817.60L746.07,810.12L751.38,802.58L756.50,794.96L761.40,787.28L766.11,779.54L770.61,771.74L774.90,763.90L779.00,756.01L782.89,748.08L786.57,740.12L790.06,732.13L793.34,724.11L796.42,716.07L799.30,708.02L801.98,699.95L804.47,691.88L806.75,683.81L808.84,675.73L810.74,667.67L812.44,659.61L813.96,651.57L815.28,643.55L816.41,635.55L817.36,627.58L818.12,619.64L818.71,611.73L819.11,603.87L819.33,596.05L819.37,588.27L819.24,580.54L818.94,572.87L818.47,565.26L817.83,557.70L817.03,550.21L816.06,542.79L814.94,535.44L813.66,528.16L812.22,520.96L810.63,513.83L808.90,506.79L807.01,499.84L804.99,492.97L802.82,486.20L800.52,479.51L798.08,472.93L795.51,466.44L792.81,460.05L789.99,453.76L787.05,447.58L783.98,441.50L780.80,435.53L777.51,429.68L774.11,423.93L770.60,418.30L766.99,412.79L763.28,407.39L759.48,402.11L755.58,396.95L751.59,391.91L747.51,386.99L743.35,382.20L739.12,377.53L734.80,372.99L730.41,368.58L725.95,364.29L721.43,360.13L716.84,356.09L712.19,352.19L707.49,348.42L702.73,344.77L697.92,341.26L693.07,337.88L688.17,334.63L683.23,331.51L678.26,328.52L673.25,325.66L668.20,322.94L663.14,320.34L658.04,317.87L652.93,315.54L647.79,313.33L642.64,311.25L637.48,309.31L632.31,307.49L627.13,305.80L621.95,304.23L616.77,302.79L611.59,301.48L606.41,300.29L601.24,299.23L596.08,298.28L590.94,297.46L585.81,296.76L580.70,296.18L575.61,295.72L570.54,295.38L565.50,295.15L560.48,295.03L555.50,295.03L550.55,295.14L545.63,295.35L540.75,295.68L535.91,296.12L531.12,296.66L526.36,297.30L521.65,298.04L516.99,298.89L512.38,299.84L507.82,300.88L503.32,302.01L498.87,303.24L494.47,304.57L490.14,305.98L485.86,307.47L481.65,309.06L477.50,310.73L473.41,312.48L469.39,314.31L465.44,316.22L461.56,318.20L457.74,320.26L454.00,322.39L450.33,324.59L446.73,326.85L443.21,329.18L439.76,331.58L436.39,334.04L433.10,336.55L429.88,339.13L426.75,341.76L423.69,344.44L420.71,347.17L417.82,349.95L415.00,352.78Z" fill="url(#g)"></path><path d="M585.00,352.78L588.09,353.34L591.19,353.96L594.29,354.63L597.41,355.37L600.53,356.16L603.66,357.01L606.79,357.92L609.92,358.90L613.06,359.93L616.20,361.02L619.34,362.18L622.48,363.40L625.62,364.68L628.75,366.02L631.89,367.42L635.01,368.89L638.13,370.42L641.25,372.02L644.35,373.68L647.45,375.40L650.53,377.19L653.60,379.04L656.66,380.96L659.71,382.94L662.74,384.99L665.75,387.10L668.75,389.28L671.72,391.53L674.68,393.84L677.61,396.21L680.52,398.66L683.41,401.16L686.27,403.74L689.10,406.38L691.91,409.08L694.68,411.85L697.43,414.69L700.14,417.59L702.82,420.56L705.46,423.59L708.07,426.69L710.64,429.85L713.17,433.07L715.66,436.36L718.11,439.72L720.52,443.13L722.88,446.61L725.19,450.16L727.46,453.76L729.68,457.43L731.85,461.16L733.97,464.95L736.04,468.80L738.05,472.71L740.01,476.68L741.91,480.71L743.75,484.79L745.53,488.94L747.25,493.14L748.91,497.39L750.51,501.71L752.04,506.07L753.50,510.49L754.89,514.96L756.22,519.49L757.48,524.07L758.66,528.69L759.77,533.37L760.81,538.09L761.77,542.87L762.66,547.69L763.46,552.55L764.19,557.46L764.84,562.41L765.40,567.40L765.88,572.44L766.28,577.51L766.59,582.62L766.81,587.77L766.94,592.96L766.99,598.18L766.94,603.43L766.81,608.72L766.58,614.04L766.25,619.38L765.84,624.75L765.32,630.15L764.71,635.58L764.00,641.02L763.19,646.49L762.28,651.98L761.27,657.49L760.16,663.01L758.95,668.55L757.63,674.10L756.21,679.66L754.68,685.24L753.04,690.82L751.30,696.41L749.45,702.00L747.49,707.60L745.42,713.19L743.24,718.79L740.95,724.38L738.55,729.96L736.04,735.54L733.41,741.11L730.67,746.67L727.82,752.22L724.85,757.75L721.77,763.27L718.57,768.76L715.26,774.24L711.83,779.69L708.29,785.11L704.63,790.51L700.85,795.87L696.96,801.21L692.94,806.51L688.82,811.77L684.57,817.00L680.21,822.18L675.73,827.32L671.13,832.41L666.42,837.46L661.58,842.45L656.63,847.39L651.57,852.28L646.39,857.11L641.09,861.88L635.68,866.58L630.15,871.22L624.50,875.80L618.74,880.30L612.87,884.74L606.88,889.09L600.78,893.37L594.57,897.58L588.24,901.70L581.81,905.73L575.26,909.68L568.61,913.54L561.85,917.31L554.97,920.98L548.00,924.56L540.91,928.03L533.73,931.41L526.43,934.68L519.04,937.85L511.55,940.91L503.95,943.85L496.26,946.68L488.47,949.40L480.58,952.00L472.60,954.47L464.53,956.83L456.36,959.05L448.11,961.15L439.77,963.12L431.34,964.96A470.00,470.00 0 0 1 108.53,760.09L116.92,767.14L125.42,773.95L134.02,780.52L142.71,786.86L151.48,792.96L160.33,798.83L169.25,804.46L178.24,809.85L187.29,815.01L196.40,819.93L205.55,824.62L214.75,829.06L223.99,833.28L233.27,837.26L242.57,841.00L251.89,844.51L261.24,847.79L270.59,850.84L279.95,853.67L289.31,856.26L298.67,858.62L308.02,860.77L317.35,862.68L326.67,864.38L335.96,865.86L345.23,867.12L354.46,868.16L363.65,868.99L372.80,869.61L381.91,870.02L390.97,870.23L399.97,870.23L408.91,870.03L417.79,869.63L426.60,869.03L435.33,868.24L444.00,867.26L452.58,866.09L461.08,864.74L469.50,863.21L477.83,861.50L486.06,859.62L494.20,857.56L502.23,855.33L510.17,852.94L518.00,850.39L525.72,847.68L533.32,844.81L540.82,841.80L548.19,838.63L555.45,835.32L562.59,831.87L569.60,828.29L576.49,824.57L583.24,820.72L589.87,816.74L596.36,812.65L602.72,808.43L608.94,804.10L615.03,799.66L620.98,795.11L626.78,790.46L632.44,785.71L637.96,780.87L643.34,775.93L648.56,770.91L653.65,765.80L658.58,760.61L663.37,755.35L668.00,750.01L672.49,744.61L676.82,739.14L681.01,733.61L685.04,728.02L688.92,722.38L692.65,716.69L696.23,710.95L699.66,705.17L702.93,699.35L706.05,693.50L709.03,687.61L711.85,681.70L714.51,675.77L717.03,669.81L719.40,663.84L721.62,657.85L723.69,651.85L725.62,645.85L727.39,639.84L729.02,633.83L730.51,627.83L731.85,621.83L733.05,615.84L734.10,609.86L735.02,603.90L735.80,597.96L736.43,592.04L736.93,586.14L737.30,580.28L737.53,574.44L737.63,568.63L737.60,562.87L737.45,557.14L737.16,551.45L736.75,545.80L736.21,540.21L735.56,534.66L734.78,529.16L733.89,523.72L732.88,518.33L731.75,513.00L730.52,507.73L729.17,502.52L727.72,497.38L726.16,492.30L724.50,487.29L722.73,482.35L720.87,477.49L718.91,472.69L716.86,467.98L714.71,463.34L712.48,458.78L710.16,454.29L707.75,449.89L705.26,445.58L702.69,441.34L700.04,437.19L697.32,433.13L694.53,429.16L691.66,425.28L688.73,421.48L685.73,417.78L682.66,414.16L679.54,410.64L676.36,407.21L673.12,403.88L669.83,400.64L666.49,397.50L663.10,394.45L659.66,391.49L656.18,388.64L652.66,385.88L649.10,383.21L645.51,380.65L641.88,378.18L638.22,375.81L634.53,373.53L630.82,371.36L627.08,369.28L623.32,367.30L619.54,365.41L615.74,363.62L611.92,361.93L608.10,360.34L604.26,358.84L600.42,357.44L596.57,356.13L592.71,354.92L588.86,353.80L585.00,352.78Z" fill="url(#g)"></path></g></svg>